<?xml version="1.0" encoding="utf-8"?>
<!-- Generator: Adobe Illustrator 26.5.0, SVG Export Plug-In . SVG Version: 6.00 Build 0)  -->
<svg height="40px" width="40px" version="1.1" id="Layer_1" xmlns="http://www.w3.org/2000/svg" xmlns:xlink="http://www.w3.org/1999/xlink" x="0px" y="0px"
	 viewBox="0 0 40 40" style="enable-background:new 0 0 40 40;" xml:space="preserve">
<style type="text/css">
	.st0{fill:#27A74A;stroke:#27A74A;stroke-miterlimit:10;}
	.st1{fill:#FFFFFF;}
	.st2{display:none;fill:#FFFFFF;}
</style>
<circle class="st0" cx="20" cy="20" r="19.27"/>
<path class="st1" d="M30,14h-2v2.65l-1.02-4.84C26.89,11.34,26.48,11,26,11H14c-0.48,0-0.89,0.34-0.98,0.81L12,16.64V14h-2v3h1.62
	l-1.32,1.28C10.11,18.47,10,18.73,10,19v9c0,0.55,0.45,1,1,1h2l-0.01-3H27l0,3h2c0.55,0,1-0.45,1-1v-9c0-0.27-0.11-0.53-0.31-0.72
	L28.37,17H30V14z M14.82,13h10.36l0.79,4H14.03L14.82,13z M13.5,23c-0.83,0-1.5-0.67-1.5-1.5s0.67-1.5,1.5-1.5s1.5,0.67,1.5,1.5
	S14.33,23,13.5,23z M23,24h-6v-4h6V24z M26.5,23c-0.83,0-1.5-0.67-1.5-1.5s0.67-1.5,1.5-1.5s1.5,0.67,1.5,1.5S27.33,23,26.5,23z"/>
<rect x="8.53" y="9.47" class="st2" width="22.53" height="21.73"/>
</svg>
